<?xml version="1.0" encoding="UTF-8"?>
<svg width="433px" height="347px" viewBox="0 0 433 347" version="1.1" xmlns="http://www.w3.org/2000/svg" xmlns:xlink="http://www.w3.org/1999/xlink">
    <title>Group 15</title>
    <g id="Page-1" stroke="none" stroke-width="1" fill="none" fill-rule="evenodd">
        <g id="Artboard-Copy-2" transform="translate(-898.000000, -200.000000)">
            <g id="Group-15" transform="translate(898.000000, 200.000000)">
                <g id="Group-14" transform="translate(1.498580, 0.000000)">
                    <rect id="Rectangle" fill="#E7E7EC" x="0" y="0" width="413.139985" height="16.3799994" rx="1.81999993"></rect>
                    <circle id="Oval" fill="#878787" cx="7.27999973" cy="8.1899997" r="2.7299999"></circle>
                    <circle id="Oval-Copy-2" fill="#878787" cx="16.3799994" cy="8.1899997" r="2.7299999"></circle>
                    <circle id="Oval-Copy-3" fill="#878787" cx="25.4799991" cy="8.1899997" r="2.7299999"></circle>
                    <rect id="Rectangle-Copy-18" fill="#FBFBFB" x="0" y="42.3999987" width="413.139985" height="209.299992" rx="1.81999993"></rect>
                    <rect id="Rectangle-Copy-4" fill="#F2F2F6" x="30.0299989" y="23.1099993" width="382.199986" height="11.8299996" rx="1.81999993"></rect>
                    <rect id="Rectangle-Copy-5" fill="#F2F2F6" x="14.5599995" y="97.9099966" width="188.369993" height="24.5699991" rx="1.81999993"></rect>
                    <rect id="Rectangle-Copy-6" fill="#F2F2F6" x="14.5599995" y="82.4399972" width="139.229995" height="12.7399995" rx="1.81999993"></rect>
                    <rect id="Rectangle-Copy-20" fill="#DBDBDC" x="23.6599991" y="107.919996" width="139.229995" height="5.4599998" rx="1.81999993"></rect>
                    <rect id="Rectangle-Copy-19" fill="#F2F2F6" x="14.5599995" y="55.1399982" width="75.5299972" height="12.7399995" rx="1.81999993"></rect>
                    <rect id="Rectangle-Copy-10" fill="#F2F2F6" x="262.07999" y="54.2299982" width="139.229995" height="12.7399995" rx="1.81999993"></rect>
                    <rect id="Rectangle-Copy-11" fill="#F2F2F6" x="262.07999" y="72.4299976" width="139.229995" height="12.7399995" rx="1.81999993"></rect>
                    <rect id="Rectangle-Copy-12" fill="#F2F2F6" x="262.07999" y="90.6299969" width="139.229995" height="12.7399995" rx="1.81999993"></rect>
                    <rect id="Rectangle-Copy-13" fill="#F2F2F6" x="262.07999" y="108.829996" width="139.229995" height="12.7399995" rx="1.81999993"></rect>
                    <rect id="Rectangle-Copy-17" fill="#F2F2F6" x="262.07999" y="136.129995" width="139.229995" height="12.7399995" rx="1.81999993"></rect>
                    <rect id="Rectangle-Copy-16" fill="#F2F2F6" x="262.07999" y="154.329995" width="139.229995" height="12.7399995" rx="1.81999993"></rect>
                    <rect id="Rectangle-Copy-15" fill="#F2F2F6" x="262.07999" y="172.529994" width="139.229995" height="12.7399995" rx="1.81999993"></rect>
                    <rect id="Rectangle-Copy-14" fill="#F2F2F6" x="262.07999" y="190.729993" width="139.229995" height="12.7399995" rx="1.81999993"></rect>
                    <rect id="Rectangle-Copy-8" fill="#F2F2F6" x="14.5599995" y="155.239995" width="188.369993" height="24.5699991" rx="1.81999993"></rect>
                    <rect id="Rectangle-Copy-9" fill="#F2F2F6" x="14.5599995" y="209.839993" width="188.369993" height="24.5699991" rx="1.81999993"></rect>
                    <rect id="Rectangle-Copy-7" fill="#F2F2F6" x="14.5599995" y="139.769995" width="139.229995" height="12.7399995" rx="1.81999993"></rect>
                    <polygon id="Path-40" fill="#E7E7EC" points="4.23272471 29.0249991 9.72769581 25.5979235 9.72769581 32.1947651"></polygon>
                    <polygon id="Path-40-Copy" fill="#E7E7EC" transform="translate(19.720210, 28.896344) scale(-1, 1) translate(-19.720210, -28.896344) " points="16.9727242 29.0249991 22.4676953 25.5979235 22.4676953 32.1947651"></polygon>
                    <polyline id="Path-42" fill="#FBFBFB" points="30.0299989 16.3799994 36.4245272 4.16039904 76.7375885 4.16039904 82.5496421 16.3799994"></polyline>
                    <circle id="Oval-Copy-3" fill="#DBDBDC" cx="25.934999" cy="167.524994" r="2.27499992"></circle>
                    <circle id="Oval-Copy-4" fill="#DBDBDC" cx="35.0349987" cy="167.524994" r="2.27499992"></circle>
                    <circle id="Oval-Copy-5" fill="#DBDBDC" cx="44.1349984" cy="167.524994" r="2.27499992"></circle>
                    <circle id="Oval-Copy-6" fill="#DBDBDC" cx="53.234998" cy="167.524994" r="2.27499992"></circle>
                    <circle id="Oval-Copy-7" fill="#DBDBDC" cx="62.3349977" cy="167.524994" r="2.27499992"></circle>
                    <circle id="Oval-Copy-8" fill="#DBDBDC" cx="71.4349974" cy="167.524994" r="2.27499992"></circle>
                    <circle id="Oval-Copy-9" fill="#DBDBDC" cx="80.534997" cy="167.524994" r="2.27499992"></circle>
                    <circle id="Oval-Copy-10" fill="#DBDBDC" cx="89.6349967" cy="167.524994" r="2.27499992"></circle>
                </g>
                <polygon id="Path-30" fill="#D8D8D8" points="2.96649243 346.709987 121.20422 262.008777 397.976134 261.82672 318.421726 346.709987"></polygon>
                <polygon id="Path-43" fill="#EFEFEF" points="57.4635775 307.427438 79.6609567 345.799987 88.2039705 345.799987 63.0220505 304.268354"></polygon>
                <polygon id="Path-44" fill="#EFEFEF" points="37.3545146 345.799987 27.7800249 330.112339 33.7772475 326.125619 45.7871234 345.799987"></polygon>
                <polygon id="Path-45" fill="#EFEFEF" points="85.0297167 288.16801 89.2054314 285.452715 129.508055 345.799987 122.343457 345.799987"></polygon>
                <polygon id="Path-46" fill="#EFEFEF" points="111.559486 270.058933 163.312961 345.799987 169.840158 345.799987 118.128973 267.324323"></polygon>
                <polygon id="Path-47" fill="#EFEFEF" points="155.552599 266.381284 206.11739 345.799987 212.135473 345.799987 159.666455 267.324323"></polygon>
                <polygon id="Path-48" fill="#EFEFEF" points="195.468781 265.345279 248.039413 345.799987 252.431326 345.799987 201.5076 266.381284"></polygon>
                <polygon id="Path-49" fill="#EFEFEF" points="236.64962 264.923419 289.237191 345.799987 294.449454 345.799987 242.687097 264.923419"></polygon>
                <polygon id="Path-50" fill="#EFEFEF" points="277.9425 264.923419 326.314773 338.195406 329.900802 334.306168 283.938381 264.923419"></polygon>
                <polygon id="Path-51" fill="#EFEFEF" points="319.338029 263.413616 349.899778 311.676532 356.149932 307.427438 326.842104 263.413616"></polygon>
                <polygon id="Path-52" fill="#EFEFEF" points="358.696688 261.82672 375.159363 285.452715 380.436201 281.167113 367.428851 261.82672"></polygon>
                <path d="M0.0429369034,335.62276 C1.09127729,331.959 33.331158,313.464573 35.3829036,313.159034 C36.750734,312.955341 43.8076253,313.619306 56.5535775,315.15093 C61.4887882,310.133288 65.4321208,307.724851 68.3835753,307.92562 C71.3350299,308.126388 117.837507,308.126388 207.891006,307.92562 L221.795489,303.37562 L255.525683,298.26373 L296.147513,285.452715 L266.868756,298.934989 L298.374872,303.37562 L327.285417,290.289989 L361.681207,288.529944 L316.358568,315.15093 L329.900802,315.15093 L329.900802,310.434435 L356.73645,310.265779 C359.344453,310.180151 360.992705,310.291868 361.681207,310.60093 C362.369709,310.909992 362.369709,311.762693 361.681207,313.159034 C374.5861,312.935737 381.896667,313.143031 383.612908,313.780918 C385.329149,314.418804 385.170655,315.986763 383.137426,318.484794 C389.172765,318.228493 393.089859,318.550842 394.88871,319.451839 C396.68756,320.352836 395.602444,321.869503 391.633361,324.001839 L343.986476,325.627438 C346.052988,327.272354 346.688696,328.664574 345.893598,329.804096 C345.098501,330.943619 343.428024,331.456775 340.882167,331.343565 L287.62554,332.080183 C290.719141,333.045428 291.60594,334.157418 290.285937,335.416155 C288.305932,337.304259 282.763736,340.989811 276.987437,341.844262 C271.211138,342.698712 200.277799,342.383179 193.189261,341.844262 C188.463569,341.484983 190.376349,339.342281 198.927601,335.416155 L145.097779,335.416155 C143.998214,339.573181 142.044285,341.715884 139.235991,341.844262 C135.023551,342.036829 20.4885154,341.668895 15.23629,341.844262 C11.7348063,341.961172 14.5034973,339.81847 23.5423629,335.416155 C7.1771853,337.996398 -0.655956686,338.065266 0.0429369034,335.62276 Z" id="Path-39" fill="#8D8D8D" opacity="0.81984747"></path>
                <polygon id="Path-20" fill="#7C7C7C" points="132.673494 189.762422 165.042567 189.762422 163.478574 192.919993 128.47531 192.919993"></polygon>
                <path d="M80.552066,150.051966 L123.705187,149.097809 C125.478788,149.058593 127.022339,150.303681 127.359363,152.045408 L134.429728,188.584855 C134.811639,190.558561 133.521234,192.468166 131.547528,192.850078 C131.318684,192.894359 131.086115,192.916557 130.853026,192.916365 L88.5153089,192.881581 C86.8098423,192.88018 85.334003,191.69484 84.9646754,190.029843 L77.0789061,154.479337 C76.6435619,152.516724 77.8816573,150.572796 79.8442698,150.137452 C80.0768361,150.085864 80.313905,150.057232 80.552066,150.051966 Z" id="Rectangle" fill="#7C7C7C"></path>
                <path d="M78.7320661,150.051966 L121.885187,149.097809 C123.658788,149.058593 125.202339,150.303681 125.539363,152.045408 L132.609728,188.584855 C132.991639,190.558561 131.701234,192.468166 129.727528,192.850078 C129.498684,192.894359 129.266115,192.916557 129.033026,192.916365 L86.695309,192.881581 C84.9898424,192.88018 83.514003,191.69484 83.1446754,190.029843 L75.2589062,154.479337 C74.8235619,152.516724 76.0616574,150.572796 78.0242698,150.137452 C78.2568362,150.085864 78.4939051,150.057232 78.7320661,150.051966 Z" id="Rectangle-Copy-3" fill="#D8D8D8"></path>
                <rect id="Rectangle" fill="#4A4A4A" x="73.3885769" y="193.829993" width="180.179993" height="7.27999973" rx="3.63999987"></rect>
                <polygon id="Path-17" fill="#BDC8CE" points="142.743799 299.485263 142.235194 307.405567 151.029904 307.92562 151.640159 299.485263"></polygon>
                <g id="Group-11-Copy" transform="translate(108.708579, 303.375620)">
                    <path d="M0,14.4506204 C0.207318385,13.1921411 0.623508233,12.3799937 1.24856954,12.0141783 C1.87363086,11.6483628 11.8645333,8.24291004 31.2212768,1.79781992 L33.9537352,0 L43.0528319,4.56907248 C42.9446767,6.79950907 42.7491339,8.48350814 42.4662035,9.62106969 C42.1832731,10.7586312 41.559581,12.3684815 40.5951272,14.4506204 L0,14.4506204 Z" id="Path-14" fill="#871238"></path>
                    <polygon id="Path-15" fill="#FFFFFF" points="0 14.4506204 0 17.701818 41.064311 17.701818 40.5951272 14.4506204"></polygon>
                </g>
                <path d="M143.578212,299.696509 L177.509649,215.574393 C179.025806,213.390384 180.490444,211.792986 181.903561,210.782199 C183.316678,209.771412 185.022461,209.101043 187.02091,208.771092 L266.868756,212.692184 L258.520825,243.744268 L197.133713,236.965669 C191.76471,249.402812 187.458028,258.540228 184.213668,264.377917 C180.969308,270.215606 170.732945,283.470999 153.504577,304.144095 L143.578212,299.696509 Z" id="Path-13" fill="#001D3F"></path>
                <polygon id="Path-16" fill="#BDC8CE" points="126.89778 307.92562 135.381412 298.26373 141.466456 303.849028 134.182118 313.159034"></polygon>
                <path d="M130.57565,302.689365 C181.325882,242.496364 208.833332,210.193417 213.097999,205.780525 C217.362666,201.367632 230.652753,199.241971 252.968259,199.403541 L270.804344,187.054458 L276.084026,187.054458 L306.04739,187.351482 C312.84213,203.865569 311.271505,215.900501 301.335517,223.456278 C291.399528,231.012056 264.412293,234.55633 220.373809,234.089103 C213.861137,247.510035 206.582807,258.99306 198.538817,268.538178 C190.494828,278.083296 170.680007,291.621358 139.094355,309.152366 L130.57565,302.689365 Z" id="Path-12" fill="#00295B"></path>
                <g id="Group-11" transform="translate(92.328580, 307.925620)">
                    <path d="M-1.58415497e-13,14.4506204 C0.207318385,13.1921411 0.623508233,12.3799937 1.24856954,12.0141783 C1.87363086,11.6483628 11.8645333,8.24291004 31.2212768,1.79781992 L33.9537352,-5.09192669e-14 L43.0528319,4.56907248 C42.9446767,6.79950907 42.7491339,8.48350814 42.4662035,9.62106969 C42.1832731,10.7586312 41.559581,12.3684815 40.5951272,14.4506204 L-1.58415497e-13,14.4506204 Z" id="Path-14" fill="#AA2450"></path>
                    <polygon id="Path-15" fill="#FFFFFF" points="3.23296933e-15 14.4506204 3.23296933e-15 17.701818 41.064311 17.701818 40.5951272 14.4506204"></polygon>
                </g>
                <g id="Group-12" transform="translate(306.348568, 70.979997)">
                    <path d="M14.4146895,171.019277 L22.1454919,219.886885 C29.4626566,221.57561 34.9505301,222.419973 38.6091124,222.419973 C42.2676947,222.419973 47.180731,221.57561 53.3482213,219.886885 L60.6418509,169.287995 L14.4146895,171.019277 Z" id="Path-21" fill="#ABABAB"></path>
                    <ellipse id="Oval" stroke="#D8D8D8" stroke-width="2.45699984" fill="#797979" cx="37.5373457" cy="169.054929" rx="24.9794984" ry="4.91399969"></ellipse>
                    <path d="M34.6290858,164.140929 C23.9509114,139.499762 19.1125623,112.859131 20.1140384,84.2190369 C21.1155145,55.5789423 27.820194,28.8464795 40.2280768,4.02164832 C53.3531318,28.7802382 59.4153687,55.466785 58.4147874,84.0812889 C57.4142062,112.695793 49.485639,139.38234 34.6290858,164.140929 Z" id="Path-25" fill="#ACEEBB"></path>
                    <polygon id="Path-36" fill="#359775" points="34.6290858 163.730064 40.2280768 36.3904401 37.422964 163.730064"></polygon>
                    <path d="M34.6290858,164.140929 C25.2148406,140.097638 30.3180048,109.737734 49.9385785,73.0612192 C69.5591522,36.3847042 93.7257555,12.0309645 122.438388,0 C114.642907,31.5276424 104.341736,58.8844639 91.5348741,82.0704647 C78.7280122,105.256465 59.7594162,132.613287 34.6290858,164.140929 Z" id="Path-22" fill="#A5DFB0"></path>
                    <path d="M33.4154851,172.486757 C35.1878897,161.059159 36.729418,152.831031 38.0400699,147.802376 C44.6829093,122.315402 53.1064395,102.226487 61.1256201,85.8075458 C71.5181128,64.5293462 84.4514243,45.9395781 99.9255545,30.0382415 C87.071809,43.8084713 75.2022847,62.4078327 64.3169816,85.8363256 C53.4316785,109.264819 43.6769252,138.11423 35.0527216,172.384561 L33.4154851,172.486757 Z" id="Path-35" fill="#359775"></path>
                    <path d="M34.6290858,164.140929 C41.3198456,135.422509 52.228828,112.154486 67.3560329,94.3368605 C82.4832379,76.5192349 102.024971,63.9207873 125.981233,56.5415177 C112.712371,95.822389 99.7188822,122.95286 87.0007677,137.932931 C74.2826532,152.913002 56.8254259,161.649001 34.6290858,164.140929 Z" id="Path-23" fill="#7EC58E"></path>
                    <path d="M32.5720373,172.476312 C33.0992814,168.260908 33.9744824,165.131488 35.1976402,163.088052 C49.0827688,139.891227 63.7198392,122.575457 73.1165301,111.383993 C83.7548698,98.713725 95.3438246,87.2173975 107.883394,76.8950107 C100.648377,84.0721682 90.1020394,96.0990294 76.244382,112.975594 C64.1912402,127.654528 49.3316514,144.622599 37.3427508,163.92697 C36.1461523,165.853717 35.2981636,168.803535 34.7987849,172.776425 L32.5720373,172.476312 Z" id="Path-34" fill="#359775"></path>
                    <path d="M34.6290858,164.140929 C16.8234325,131.982389 6.16047122,108.714366 2.64020195,94.3368605 C-0.880067317,79.9593547 -0.880067317,59.6776441 2.64020195,33.4917289 C22.3403151,55.6027505 34.1209958,74.5433287 37.9822441,90.3134633 C41.8434924,106.083598 40.7257729,130.692753 34.6290858,164.140929 Z" id="Path-24" fill="#7EC58E"></path>
                    <polygon id="Path-37" fill="#359775" points="37.0031092 172.152727 16.0217262 96.5734337 10.3438156 56.5415177 19.9852305 96.8841528 39.1478988 172.352844"></polygon>
                    <path d="M16.0217262,179.382541 C22.9252376,181.619894 29.9760316,182.737499 37.1741083,182.735358 C44.3721849,182.733216 51.60625,181.611361 58.8763036,179.369791 L58.5211008,181.828563 C51.2269751,184.074393 44.1136818,185.200376 37.181221,185.20651 C30.2487601,185.212578 23.3350932,184.09894 16.4402201,181.865597 L16.0217262,179.382541 Z" id="Path-38" fill="#D6D6D6"></path>
                </g>
                <g id="Group-13" transform="translate(216.106417, 119.401040)">
                    <polygon id="Path-31" fill="#4A4A4A" points="52.2247285 131.056693 42.2048711 201.676398 45.8118993 201.676398 55.8778062 130.426953"></polygon>
                    <polygon id="Path-31-Copy" fill="#4A4A4A" points="20.229608 127.903656 0.344872601 188.026398 3.95190081 188.026398 24.6584176 128.111006"></polygon>
                    <polygon id="Path-32" fill="#4A4A4A" points="66.090584 125.953307 79.2790656 168.002941 82.2684548 167.130582 68.7368721 123.041818"></polygon>
                    <polygon id="Path-33" fill="#4A4A4A" points="82.2684548 117.922498 100.252151 176.660656 104.100905 175.18916 85.2624263 115.227821"></polygon>
                    <path d="M0,123.870751 L4.06686421,114.750609 L31.7645021,114.617945 C30.0154236,98.3768616 35.6590331,86.70747 48.6953305,79.6097705 C61.7316279,72.512071 76.3387429,72.6359977 92.5166756,79.9815507 L75.4093129,7.8726547 C82.2996946,0.347923985 95.2646768,-1.6256947 114.30426,1.95179863 C133.343842,5.52929197 134.841343,27.4298318 118.796763,67.6534181 C107.229017,96.8348086 92.2752701,115.764897 73.9355215,124.443684 C55.595773,133.12247 30.9505991,132.931493 0,123.870751 Z" id="Path-18" fill="#F3A00E"></path>
                    <path d="M92.5166756,79.9815507 C102.68181,74.7197157 108.872164,69.4556886 111.087738,64.1894694 C115.718445,53.182697 115.966688,45.8829884 115.225003,38.5105228 C114.729452,33.584662 111.898996,27.1862954 108.646889,24.2473637 C106.463048,22.2738252 102.878945,19.735846 93.957477,21.0648172 C88.0098316,21.9507981 83.3710378,24.4999417 80.0410955,28.7122482 L92.5166756,79.9815507 Z" id="Path-26" fill="#D18600"></path>
                </g>
                <polygon id="Path-19" fill="#4A4A4A" points="111.559486 201.419004 114.962273 331.343565 122.021113 331.343565 124.698461 201.476231"></polygon>
                <polygon id="Path-19-Copy" fill="#4A4A4A" points="202.559483 201.419004 205.96227 331.343565 213.02111 331.343565 215.698458 201.476231"></polygon>
                <g id="Group-10" transform="translate(208.361364, 120.316496) rotate(-10.000000) translate(-208.361364, -120.316496) translate(122.861364, 36.816496)">
                    <path d="M86.3654527,71.7973997 C92.122907,70.9650285 96.4683829,70.0622033 99.4018803,69.0889239 C102.335378,68.1156446 106.489859,66.1983438 111.865324,63.3370214 L133.552196,63.3370214 C140.516025,68.3792248 145.915345,71.9556178 149.750155,74.0662006 C153.584965,76.1767833 158.605578,78.3352582 164.811994,80.5416251 L169.922566,166.406544 L137.7281,162.242955 L121.63026,166.415751 C111.997179,143.552061 104.952538,126.142039 100.496335,114.185685 C96.0401329,102.229331 91.3298387,88.0999025 86.3654527,71.7973997 Z" id="Path-3" fill="#C0305F"></path>
                    <path d="M112.31683,62.3569225 C108.11589,64.6645244 106.106218,67.3065479 106.287813,70.2829929 C106.560206,74.7476605 109.099552,80.4196267 120.957606,79.9881995 C132.815661,79.5567724 137.813533,73.3117283 138.757908,69.5943308 C139.387491,67.1160657 137.652264,64.7035963 133.552228,62.3569225 L112.31683,62.3569225 Z" id="Path-11" stroke="#FFFFFF" stroke-width="0.903402464" fill="#BDC8CE"></path>
                    <path d="M24.9046279,142.873063 L26.1950478,135.554728 C18.3190243,134.813465 13.652212,134.546524 12.1946107,134.753905 C10.7370094,134.961286 6.95448284,135.884454 0.847030974,137.523409 L0.68123871,139.254055 L13.1418647,138.508811 C16.1373364,140.406418 18.2702641,141.590892 19.5406478,142.062233 C20.8110315,142.533574 22.5990248,142.803851 24.9046279,142.873063 Z" id="Path-29" fill="#B8C6CF"></path>
                    <path d="M86.3797856,71.7988659 C80.7174984,85.8715015 76.8209372,96.930435 74.6901019,104.975666 C72.5592666,113.020898 70.5207831,122.846491 68.5746513,134.452445 L25.8386832,134.877211 L24.9046279,142.873063 L78.0811808,155.551909 C84.6446065,143.911385 89.325919,134.551651 92.1251184,127.472707 C94.9243179,120.393764 97.0759438,114.051807 98.5799963,108.446836 L86.3797856,71.7988659 Z" id="Path-4" fill="#961A43"></path>
                    <path d="M7.31529749,142.622248 C9.69061499,137.186249 11.3162627,133.843525 12.1922405,132.594075 C13.0682183,131.344626 22.4304586,126.454052 40.2789614,117.922355 L39.2444171,126.295486 C38.3484559,127.679795 37.6095845,128.692194 37.0278028,129.332683 C35.6856055,130.810321 34.0268965,132.165743 32.0516758,133.398948 C28.7922023,135.433961 23.5940645,136.591266 16.4572626,136.870863 L12.1922405,142.622248 L7.31529749,142.622248 Z" id="Path-28" fill="#D1D9DE" transform="translate(23.797129, 130.272301) rotate(10.000000) translate(-23.797129, -130.272301) "></path>
                    <path d="M164.927928,80.5416251 C161.697487,79.3452878 157.267365,79.9212207 151.637561,82.2694237 C144.313985,92.0603227 139.158853,101.19945 136.172163,109.686806 C133.185473,118.174162 129.278758,129.576292 124.452017,143.893195 L42.6393383,120.435168 L39.9166508,129.028825 C61.6555634,142.275381 78.2290868,150.818 89.6372211,154.656681 C101.045355,158.495362 116.13375,161.617942 134.902405,164.024421 C147.885234,144.888165 155.71973,132.204968 158.405893,125.974832 C167.216865,105.539154 170.220002,90.8954999 170.483077,89.2485316 C171.058144,85.648345 169.773588,82.336131 164.927928,80.5416251 Z" id="Path-5" fill="#AA2450"></path>
                    <path d="M111.455096,55.3566863 L112.776489,70.4943526 L134.813198,68.6124 L133.552196,62.9255195 C132.643878,63.040141 131.942867,60.451064 131.449162,55.1582886 C130.955457,49.8655131 130.65737,41.7437343 130.554902,30.7929521 L111.455096,55.3566863 Z" id="Path-10" fill="#BDC8CE"></path>
                    <path d="M99.415288,8.77670362 C95.1515015,19.187619 93.3448228,28.5588217 93.995252,36.8903117 C94.9708959,49.3875466 97.3583993,56.6048557 105.910972,58.6572216 C114.463545,60.7095876 123.222967,48.5765994 127.124293,42.4823686 C129.725176,38.4195481 131.867822,29.3371923 133.552228,15.235301 L99.415288,8.77670362 Z" id="Path-6" fill="#D1D9DE"></path>
                    <g id="Group-16" transform="translate(103.847004, 29.776684) rotate(8.000000) translate(-103.847004, -29.776684) translate(93.847004, 25.776684)">
                        <path d="M18.7217356,4.06327474 C18.6210616,4.97263072 17.8025096,5.62799871 16.8931536,5.52732471 C15.9837976,5.42665071 15.3284297,4.60744073 15.4291037,3.69874275 C15.5297777,2.78938676 16.3483296,2.13336078 17.2576856,2.23403478 C18.1670416,2.33470877 18.8224096,3.15391876 18.7217356,4.06327474" id="Fill-350" fill="#4A545B"></path>
                        <path d="M4.40145957,5.6747677 C4.29223157,6.66308368 3.40195759,7.37635567 2.41298361,7.26646967 C1.42400963,7.15724167 0.71139564,6.26696769 0.821281638,5.27799371 C0.930509636,4.28967773 1.82078362,3.57640574 2.8097576,3.68629174 C3.79807358,3.79551974 4.51068757,4.68579372 4.40145957,5.6747677" id="Fill-352" fill="#4A545B"></path>
                        <path d="M2.09122161,6.58807168 C2.18728961,6.59859968 2.28006761,6.59333568 2.37087161,6.58017568 C1.77801362,6.49397769 1.35426163,5.9544177 1.42071963,5.35366371 C1.47796563,4.83581772 1.88197762,4.44364973 2.37481961,4.37390173 L2.33731361,4.36600573 C1.72339962,4.29757373 1.17133763,4.74040772 1.10290563,5.35366371 C1.03513163,5.9675777 1.47730763,6.52029769 2.09122161,6.58807168" id="Fill-353" fill="#FFFFFF"></path>
                        <path d="M16.7918216,4.99302872 C16.8872316,5.00355672 16.9800096,4.99763472 17.0714716,4.98447472 C16.4779556,4.89827672 16.0542036,4.35937473 16.1206616,3.75862075 C16.1779076,3.24011676 16.5819196,2.84794876 17.0754196,2.77820076 L17.0379136,2.77030476 C16.4239996,2.70253077 15.8712797,3.14470676 15.8035057,3.75862075 C15.7350737,4.37187673 16.1779076,4.92459672 16.7918216,4.99302872" id="Fill-354" fill="#FFFFFF"></path>
                        <path d="M-0.00121834596,3.61588574 C-0.00121834596,3.61588574 0.0112836538,3.26582975 0.238293649,2.80062376 C0.348837647,2.56834976 0.514653644,2.31041377 0.742321639,2.06892777 C0.860761637,1.95443578 0.982491635,1.82744178 1.13054163,1.73005778 C1.27859163,1.63267378 1.42993163,1.53265778 1.60035362,1.46356779 C1.76551162,1.38394979 1.94448762,1.34512779 2.11885761,1.30367379 C2.29191161,1.25103379 2.47286161,1.27472179 2.6393356,1.25958779 C2.8071256,1.25498179 2.9663616,1.29775179 3.11572759,1.31880779 C3.26640959,1.33459979 3.39537759,1.40434779 3.51776559,1.44514379 C3.76451558,1.52344578 3.93756958,1.65899378 4.06193157,1.73795378 C4.18431957,1.82217778 4.24880357,1.87481778 4.24880357,1.87481778 C4.24880357,1.87481778 4.16128957,1.87218578 4.01587158,1.86034178 C3.87045358,1.85244578 3.67371158,1.81099178 3.43683159,1.81428178 C3.31970759,1.81757178 3.19600359,1.79256778 3.06637759,1.80770178 C2.9367516,1.82151978 2.8018616,1.81954578 2.6669716,1.83862778 C2.5340556,1.86889578 2.39324361,1.87876578 2.26032761,1.92285178 C2.12609561,1.96298978 1.98791562,1.99720577 1.86223762,2.06629577 C1.59443162,2.16367977 1.35886763,2.33673377 1.13119963,2.49531176 C0.911427636,2.66704976 0.71468564,2.84931576 0.546895643,3.01578975 C0.21723765,3.35202775 -0.00121834596,3.61588574 -0.00121834596,3.61588574" id="Fill-355" fill="#4A545B"></path>
                        <path d="M15.2560497,1.47865079 C15.2560497,1.47865079 15.3876497,1.1549148 15.7600777,0.795646803 C15.9436596,0.615354807 16.1884356,0.429798811 16.4845356,0.280432813 C16.6352176,0.213974815 16.7931376,0.136988816 16.9655336,0.0955348171 C17.1385876,0.0547388179 17.3149316,0.0126268187 17.4985136,0.00604681886 C17.6807796,-0.0117191808 17.8623876,0.0132848187 18.0407056,0.0343408183 C18.2209976,0.0435528181 18.3828656,0.128434816 18.5440756,0.171204816 C18.7039696,0.224502815 18.8388596,0.319254813 18.9711176,0.389660811 C19.1073236,0.45611881 19.2047076,0.566662808 19.3060396,0.646280806 C19.5106776,0.804858803 19.6271436,0.9917308 19.7166316,1.1081968 C19.8028296,1.22926879 19.8455996,1.30099079 19.8455996,1.30099079 C19.8455996,1.30099079 19.7640076,1.26874879 19.6317496,1.2075548 C19.4975176,1.1496508 19.3270956,1.0437128 19.1033756,0.9654108 C18.9921736,0.927904801 18.8842616,0.862762802 18.7579256,0.831836803 C18.6315896,0.801568803 18.5052536,0.752876804 18.3723376,0.724582805 C18.2361316,0.706816805 18.1012416,0.668652806 17.9610876,0.664704806 C17.8209336,0.655492806 17.6794636,0.641016806 17.5379936,0.662730806 C17.2530796,0.662072806 16.9721136,0.743664804 16.7043076,0.815386803 C16.4391336,0.900926801 16.1917256,1.0042328 15.9765596,1.1029328 C15.5521497,1.30625479 15.2560497,1.47865079 15.2560497,1.47865079" id="Fill-356" fill="#4A545B"></path>
                    </g>
                    <path d="M108.357102,47.7541248 C103.78632,47.7541248 102.047505,44.5400392 102.027399,44.5022962 C101.957893,44.3685782 102.016485,44.2073617 102.158371,44.141581 C102.300831,44.0763395 102.472587,44.1313365 102.543242,44.2645153 C102.629982,44.428967 104.737585,48.2841443 110.743881,46.9334843 C110.898404,46.9000548 111.053501,46.9884812 111.090265,47.132983 C111.127029,47.2780239 111.031673,47.4230649 110.877724,47.4581119 C109.955755,47.6651592 109.11708,47.7541248 108.357102,47.7541248" id="Fill-351" fill="#4A545B" transform="translate(106.548148, 45.934125) scale(-1, 1) rotate(-10.000000) translate(-106.548148, -45.934125) "></path>
                    <path d="M90.242489,1.8965948 C95.486649,-1.91802284 129.811051,-0.00588008199 137.867816,7.88212448 C143.238992,13.1407942 141.421707,26.0246459 132.415961,46.5336796 L129.201338,47.7340008 L131.017619,33.5621965 C127.129911,37.7848724 124.653864,39.2151228 123.589477,37.8529475 C122.525089,36.4907723 123.191505,32.7446021 125.588723,26.6144369 L122.472137,25.2313352 L124.919236,19.9269769 C111.02535,21.0219093 101.749612,20.3585046 97.0920218,17.9367626 C90.1056362,14.3041496 84.998329,5.71121244 90.242489,1.8965948 Z" id="Path-8" fill="#3A3F47"></path>
                    <circle id="Oval" stroke="#4A4A4A" stroke-width="0.909999967" cx="111.147639" cy="30.0519237" r="6.82499975"></circle>
                    <circle id="Oval-Copy" stroke="#4A4A4A" stroke-width="0.909999967" cx="94.7676392" cy="28.2319238" r="6.82499975"></circle>
                    <polygon id="Path-9" fill="#4A4A4A" points="118.4597 29.1773156 138.871945 29.5882557 138.137531 32.6390658 118.4597 30.2290548"></polygon>
                    <path d="M123.589681,40.1558297 C123.558325,38.6467615 127.154006,33.3112478 128.847233,31.6240954 C130.540459,29.936943 132.197923,29.4952944 133.552196,30.2290548 C134.906468,30.9628153 135.005368,32.8424549 134.611348,34.7471602 C134.217329,36.6518656 133.328497,38.4262117 131.498681,40.1558297 C129.668865,41.8854476 128.055698,42.1929163 126.734254,42.1929163 C125.41281,42.1929163 123.621037,41.6648978 123.589681,40.1558297 Z" id="Path-7" fill="#D1D9DE"></path>
                    <path d="M101.54739,28.9108728 C102.295274,28.7750975 102.844745,28.7381603 103.195801,28.8000611 C103.546858,28.8619619 103.949095,29.0064319 104.402512,29.2334711" id="Path-53" stroke="#4A4A4A" stroke-width="0.909999967"></path>
                    <path d="M88.1088765,27.0578043 L94.4339382,26.832347 C94.407016,27.1568795 94.3863598,27.4099917 94.3719694,27.5916837 C94.357579,27.7733757 94.3368948,28.0422262 94.3099167,28.398235 L88.1810486,28.0759772 L88.1088765,27.0578043 Z" id="Path-54" fill="#4A4A4A"></path>
                </g>
                <path d="M221.795489,234.566002 C226.977103,237.075931 231.047774,238.702838 234.007502,239.446724 C236.967231,240.19061 241.644534,240.632903 248.039413,240.773604 L248.034519,233.873472 L221.795489,234.566002 Z" id="Path-27" fill="#D18600"></path>
                <path d="M100.947515,167.439331 C98.7200182,167.83063 96.970918,170.40893 97.1976515,172.365587 C97.424385,174.322244 99.5740543,176.312806 101.927842,175.899322 C104.281629,175.485838 105.936622,173.312094 105.693576,171.214658 C105.450529,169.117222 103.175012,167.048032 100.947515,167.439331 Z" id="Path-41" fill="#B6B6B6"></path>
            </g>
        </g>
    </g>
</svg>